<svg xmlns="http://www.w3.org/2000/svg" viewBox="0 0 24 24" fill="#6750A4">
  <path d="M4 5h6v6H4V5zm0 8h6v6H4v-6zm8-8h6v6h-6V5zm0 8h6v6h-6v-6z" opacity="0.3"/>
  <path d="M4 3c-1.1 0-2 .9-2 2v6c0 1.1.9 2 2 2h6c1.1 0 2-.9 2-2V5c0-1.1-.9-2-2-2H4zm6 8H4V5h6v6zm4-8c-1.1 0-2 .9-2 2v6c0 1.1.9 2 2 2h6c1.1 0 2-.9 2-2V5c0-1.1-.9-2-2-2h-6zm6 8h-6V5h6v6zM4 13c-1.1 0-2 .9-2 2v6c0 1.1.9 2 2 2h6c1.1 0 2-.9 2-2v-6c0-1.1-.9-2-2-2H4zm6 8H4v-6h6v6zm4-8c-1.1 0-2 .9-2 2v6c0 1.1.9 2 2 2h6c1.1 0 2-.9 2-2v-6c0-1.1-.9-2-2-2h-6zm6 8h-6v-6h6v6z"/>
</svg>
